<?xml version="1.0" encoding="UTF-8" standalone="no"?>
<!-- Created with Inkscape (http://www.inkscape.org/) -->

<svg
   xmlns:dc="http://purl.org/dc/elements/1.1/"
   xmlns:cc="http://creativecommons.org/ns#"
   xmlns:rdf="http://www.w3.org/1999/02/22-rdf-syntax-ns#"
   xmlns:svg="http://www.w3.org/2000/svg"
   xmlns="http://www.w3.org/2000/svg"
   xmlns:sodipodi="http://sodipodi.sourceforge.net/DTD/sodipodi-0.dtd"
   xmlns:inkscape="http://www.inkscape.org/namespaces/inkscape"
   version="1.1"
   id="svg2"
   xml:space="preserve"
   width="44.297333"
   height="43.935997"
   viewBox="0 0 44.297333 43.935996"
   sodipodi:docname="bcomu_programa_.svg"
   inkscape:version="0.92.4 (5da689c313, 2019-01-14)"><metadata
     id="metadata8"><rdf:RDF><cc:Work
         rdf:about=""><dc:format>image/svg+xml</dc:format><dc:type
           rdf:resource="http://purl.org/dc/dcmitype/StillImage" /><dc:title></dc:title></cc:Work></rdf:RDF></metadata><defs
     id="defs6"><clipPath
       clipPathUnits="userSpaceOnUse"
       id="clipPath18"><path
         d="M 53.503,208.232 H 316.17 v 175.11 H 53.503 Z"
         id="path16"
         inkscape:connector-curvature="0" /></clipPath><clipPath
       clipPathUnits="userSpaceOnUse"
       id="clipPath32"><path
         d="M 288.822,326.806 H 566.953 V 512.227 H 288.822 Z"
         id="path30"
         inkscape:connector-curvature="0" /></clipPath><clipPath
       clipPathUnits="userSpaceOnUse"
       id="clipPath56"><path
         d="M 28.127,447.302 H 316.879 V 639.803 H 28.127 Z"
         id="path54"
         inkscape:connector-curvature="0" /></clipPath><clipPath
       clipPathUnits="userSpaceOnUse"
       id="clipPath70"><path
         d="m 242.362,60.962 h 291.98 v 194.653 h -291.98 z"
         id="path68"
         inkscape:connector-curvature="0" /></clipPath><clipPath
       clipPathUnits="userSpaceOnUse"
       id="clipPath84"><path
         d="M 0,0 H 595.276 V 841.89 H 0 Z"
         id="path82"
         inkscape:connector-curvature="0" /></clipPath><clipPath
       clipPathUnits="userSpaceOnUse"
       id="clipPath114"><path
         d="M 0,0 H 595.276 V 841.89 H 0 Z"
         id="path112"
         inkscape:connector-curvature="0" /></clipPath><clipPath
       clipPathUnits="userSpaceOnUse"
       id="clipPath138"><path
         d="M 0,0 H 595.276 V 841.89 H 0 Z"
         id="path136"
         inkscape:connector-curvature="0" /></clipPath></defs><sodipodi:namedview
     pagecolor="#ffffff"
     bordercolor="#666666"
     borderopacity="1"
     objecttolerance="10"
     gridtolerance="10"
     guidetolerance="10"
     inkscape:pageopacity="0"
     inkscape:pageshadow="2"
     inkscape:window-width="1920"
     inkscape:window-height="1018"
     id="namedview4"
     showgrid="false"
     inkscape:zoom="6.7277196"
     inkscape:cx="53.814938"
     inkscape:cy="34.067683"
     inkscape:window-x="-8"
     inkscape:window-y="-8"
     inkscape:window-maximized="1"
     inkscape:current-layer="g134"
     fit-margin-top="0"
     fit-margin-left="0"
     fit-margin-right="0"
     fit-margin-bottom="0" /><g
     id="g10"
     inkscape:groupmode="layer"
     inkscape:label="bcomu_programa_"
     transform="matrix(1.3333333,0,0,-1.3333333,-37.795066,82.519731)"><g
       id="g64"><g
         id="g66"
         clip-path="url(#clipPath70)"><g
           id="g72"><g
             id="g74"
             transform="matrix(294.17443,0,0,196.71925,241.26468,59.927867)" /></g></g></g><g
       id="g132"><g
         id="g134"
         clip-path="url(#clipPath138)"><g
           id="g160"
           transform="translate(44.9573,38.8846)"><path
             d="m 0,0 c -0.874,0 -1.722,0.167 -2.521,0.494 -0.8,0.331 -1.519,0.809 -2.135,1.419 -0.616,0.61 -1.093,1.324 -1.426,2.117 -0.122,0.285 0.015,0.615 0.307,0.734 0.287,0.118 0.618,-0.016 0.737,-0.303 C -4.764,3.804 -4.364,3.214 -3.854,2.707 -3.343,2.2 -2.75,1.806 -2.086,1.531 -1.424,1.261 -0.724,1.122 0,1.122 c 0.723,0 1.426,0.139 2.087,0.409 0.662,0.275 1.257,0.669 1.765,1.176 0.513,0.507 0.912,1.097 1.185,1.754 0.276,0.654 0.415,1.351 0.415,2.07 0,0.715 -0.139,1.412 -0.415,2.068 C 4.764,9.257 4.365,9.846 3.852,10.354 3.344,10.858 2.751,11.25 2.087,11.525 1.426,11.799 0.723,11.936 0,11.936 c -0.722,0 -1.424,-0.137 -2.086,-0.409 -0.288,-0.12 -0.62,0.016 -0.741,0.303 -0.119,0.286 0.018,0.614 0.306,0.734 0.8,0.327 1.647,0.494 2.521,0.494 0.874,0 1.719,-0.167 2.52,-0.494 0.803,-0.33 1.52,-0.809 2.136,-1.419 C 5.271,10.535 5.751,9.824 6.083,9.029 6.414,8.236 6.583,7.394 6.583,6.531 6.583,5.665 6.414,4.824 6.083,4.03 5.751,3.234 5.27,2.523 4.656,1.913 4.04,1.303 3.32,0.825 2.52,0.494 1.719,0.167 0.874,0 0,0"
             style="fill:#e8412c;fill-opacity:1;fill-rule:nonzero;stroke:none"
             id="path162"
             inkscape:connector-curvature="0" /></g><g
           id="g164"
           transform="translate(44.9573,36.8951)"><path
             d="m 0,0 c -1.139,0 -2.247,0.219 -3.288,0.647 -1.044,0.431 -1.983,1.052 -2.785,1.847 -0.804,0.798 -1.43,1.725 -1.864,2.764 -0.432,1.034 -0.653,2.132 -0.653,3.26 0,0.31 0.254,0.563 0.566,0.563 0.313,0 0.567,-0.253 0.567,-0.563 0.003,-0.981 0.191,-1.933 0.569,-2.831 0.374,-0.9 0.919,-1.707 1.616,-2.399 C -4.573,2.597 -3.76,2.057 -2.854,1.684 -1.95,1.311 -0.989,1.125 0,1.123 c 0.989,0 1.952,0.188 2.856,0.561 0.905,0.373 1.718,0.913 2.415,1.604 0.699,0.692 1.242,1.499 1.62,2.399 0.375,0.9 0.566,1.85 0.566,2.831 0,0.981 -0.191,1.935 -0.566,2.831 -0.378,0.901 -0.921,1.707 -1.62,2.4 -0.697,0.69 -1.508,1.23 -2.415,1.607 -0.904,0.37 -1.866,0.558 -2.856,0.561 -0.312,0 -0.566,0.248 -0.566,0.559 0,0.31 0.254,0.564 0.566,0.564 1.14,0 2.246,-0.219 3.29,-0.651 C 4.334,15.961 5.27,15.341 6.073,14.543 6.876,13.744 7.502,12.818 7.936,11.78 8.37,10.747 8.587,9.648 8.587,8.518 8.587,7.39 8.37,6.292 7.936,5.258 7.502,4.219 6.876,3.292 6.073,2.494 5.269,1.699 4.334,1.078 3.287,0.647 2.245,0.217 1.14,0 0,0"
             style="fill:#e8412c;fill-opacity:1;fill-rule:nonzero;stroke:none"
             id="path166"
             inkscape:connector-curvature="0" /></g><g
           id="g168"
           transform="translate(44.9573,34.9055)"><path
             d="m 0,0 c -1.404,0 -2.769,0.27 -4.056,0.798 -1.289,0.53 -2.445,1.297 -3.434,2.28 -0.994,0.983 -1.766,2.13 -2.299,3.408 -0.534,1.275 -0.806,2.63 -0.806,4.022 0,1.394 0.272,2.747 0.806,4.022 0.118,0.287 0.449,0.423 0.737,0.304 0.291,-0.119 0.427,-0.446 0.306,-0.734 -0.475,-1.138 -0.715,-2.347 -0.715,-3.592 0,-1.245 0.24,-2.452 0.715,-3.592 C -8.267,5.774 -7.577,4.753 -6.692,3.871 -5.805,2.993 -4.773,2.31 -3.622,1.835 -2.475,1.362 -1.255,1.123 0,1.123 c 1.255,0 2.473,0.239 3.623,0.709 1.151,0.478 2.181,1.161 3.066,2.039 0.887,0.882 1.579,1.902 2.058,3.045 0.476,1.14 0.714,2.347 0.714,3.592 0,1.245 -0.238,2.454 -0.714,3.592 -0.479,1.144 -1.171,2.166 -2.058,3.045 -0.881,0.875 -1.915,1.562 -3.064,2.034 -0.289,0.12 -0.426,0.45 -0.307,0.737 0.119,0.287 0.451,0.42 0.74,0.302 1.288,-0.53 2.443,-1.297 3.432,-2.278 0.992,-0.982 1.766,-2.131 2.299,-3.41 0.535,-1.275 0.805,-2.628 0.805,-4.022 0,-1.392 -0.27,-2.744 -0.805,-4.022 C 9.256,5.208 8.482,4.06 7.49,3.078 6.501,2.095 5.343,1.328 4.058,0.798 2.771,0.27 1.404,0 0,0"
             style="fill:#e8412c;fill-opacity:1;fill-rule:nonzero;stroke:none"
             id="path170"
             inkscape:connector-curvature="0" /></g><g
           id="g172"
           transform="translate(44.9573,32.9183)"><path
             d="m 0,0 c -1.672,0 -3.296,0.32 -4.823,0.948 -1.535,0.629 -2.908,1.542 -4.087,2.71 -1.178,1.17 -2.099,2.534 -2.732,4.052 -0.637,1.52 -0.957,3.13 -0.957,4.785 0,1.658 0.32,3.268 0.957,4.783 0.631,1.516 1.548,2.878 2.721,4.043 0.219,0.221 0.579,0.221 0.8,0 0.221,-0.218 0.221,-0.575 0,-0.794 -1.068,-1.061 -1.901,-2.298 -2.479,-3.678 -0.573,-1.379 -0.866,-2.845 -0.869,-4.354 0.003,-1.509 0.296,-2.974 0.869,-4.354 0.583,-1.381 1.418,-2.624 2.491,-3.688 1.074,-1.066 2.327,-1.895 3.72,-2.469 C -3.001,1.412 -1.522,1.122 0,1.122 c 1.521,0 2.998,0.29 4.39,0.862 1.394,0.574 2.645,1.403 3.717,2.469 1.076,1.061 1.912,2.304 2.49,3.688 0.579,1.381 0.87,2.847 0.87,4.356 0,1.507 -0.291,2.973 -0.87,4.352 -0.578,1.384 -1.414,2.626 -2.487,3.689 -0.221,0.22 -0.221,0.575 -0.003,0.794 0.224,0.22 0.583,0.22 0.801,0 1.181,-1.167 2.099,-2.532 2.736,-4.051 C 12.279,15.763 12.6,14.153 12.6,12.497 12.6,10.84 12.279,9.23 11.644,7.71 11.006,6.192 10.089,4.826 8.908,3.658 7.732,2.49 6.356,1.577 4.823,0.948 3.293,0.317 1.671,0 0,0"
             style="fill:#e8412c;fill-opacity:1;fill-rule:nonzero;stroke:none"
             id="path174"
             inkscape:connector-curvature="0" /></g><g
           id="g176"
           transform="translate(44.9573,30.9262)"><path
             d="m 0,0 c -1.936,0 -3.818,0.371 -5.59,1.101 -1.776,0.73 -3.37,1.788 -4.739,3.142 -1.365,1.356 -2.432,2.936 -3.167,4.698 -0.738,1.76 -1.11,3.627 -1.11,5.546 0,1.922 0.372,3.788 1.11,5.547 0.732,1.756 1.795,3.331 3.154,4.683 1.369,1.361 2.968,2.424 4.752,3.156 0.286,0.12 0.62,-0.014 0.739,-0.3 0.119,-0.288 -0.018,-0.617 -0.306,-0.736 -1.645,-0.674 -3.119,-1.656 -4.383,-2.913 -1.255,-1.246 -2.235,-2.701 -2.913,-4.32 -0.676,-1.622 -1.021,-3.343 -1.021,-5.117 0,-1.773 0.345,-3.492 1.021,-5.114 0.682,-1.627 1.665,-3.085 2.926,-4.335 1.261,-1.251 2.731,-2.225 4.37,-2.9 C -3.522,1.467 -1.789,1.124 0,1.124 c 1.787,0 3.52,0.343 5.154,1.014 1.64,0.675 3.112,1.649 4.374,2.9 1.258,1.25 2.244,2.708 2.924,4.335 0.678,1.622 1.02,3.343 1.02,5.114 0,1.774 -0.342,3.495 -1.02,5.117 -0.12,0.285 0.017,0.615 0.303,0.733 0.292,0.118 0.623,-0.017 0.742,-0.303 0.735,-1.759 1.111,-3.625 1.111,-5.547 0,-1.919 -0.376,-3.786 -1.111,-5.546 C 12.757,7.179 11.694,5.598 10.329,4.243 8.959,2.889 7.368,1.831 5.59,1.101 3.818,0.371 1.937,0 0,0"
             style="fill:#e8412c;fill-opacity:1;fill-rule:nonzero;stroke:none"
             id="path178"
             inkscape:connector-curvature="0" /></g><g
           id="g180"
           transform="translate(44.9573,28.9378)"><path
             d="m 0,0 c -2.204,0 -4.343,0.422 -6.359,1.251 -2.021,0.828 -3.833,2.033 -5.388,3.575 -1.554,1.542 -2.764,3.34 -3.606,5.343 -0.834,2.002 -1.258,4.123 -1.258,6.307 0,2.185 0.424,4.306 1.262,6.306 0.833,2 2.041,3.792 3.587,5.328 1.558,1.55 3.374,2.76 5.403,3.593 2.018,0.829 4.157,1.249 6.359,1.249 0.313,0 0.565,-0.251 0.565,-0.563 0.002,-0.306 -0.252,-0.56 -0.565,-0.56 -2.053,0 -4.046,-0.392 -5.925,-1.165 -1.89,-0.777 -3.583,-1.902 -5.034,-3.348 -1.443,-1.431 -2.567,-3.103 -3.347,-4.963 -0.777,-1.864 -1.173,-3.84 -1.173,-5.877 0,-2.037 0.396,-4.012 1.173,-5.876 0.781,-1.868 1.912,-3.542 3.36,-4.979 1.45,-1.439 3.138,-2.56 5.021,-3.334 1.877,-0.77 3.871,-1.164 5.925,-1.164 2.055,0 4.046,0.39 5.926,1.164 1.881,0.774 3.571,1.895 5.02,3.334 1.447,1.435 2.577,3.108 3.36,4.979 0.78,1.864 1.175,3.841 1.175,5.876 0,0.309 0.252,0.562 0.566,0.562 0.311,0 0.565,-0.253 0.565,-0.562 0,-2.184 -0.425,-4.305 -1.262,-6.307 C 14.512,8.166 13.3,6.365 11.746,4.826 10.193,3.284 8.38,2.079 6.36,1.251 4.341,0.42 2.202,0 0,0"
             style="fill:#e8412c;fill-opacity:1;fill-rule:nonzero;stroke:none"
             id="path182"
             inkscape:connector-curvature="0" /></g></g></g></g></svg>